<?xml version="1.0" encoding="utf-8"?>
<!-- Generator: Adobe Illustrator 19.1.0, SVG Export Plug-In . SVG Version: 6.00 Build 0)  -->
<svg version="1.1" xmlns="http://www.w3.org/2000/svg" xmlns:xlink="http://www.w3.org/1999/xlink" x="0px" y="0px"
	 viewBox="0 0 648 216" style="enable-background:new 0 0 648 216;" xml:space="preserve">
<style type="text/css">
	.st0{enable-background:new    ;}
	.st1{fill-rule:evenodd;clip-rule:evenodd;fill:#A8ECFF;}
	.st2{fill:#A8ECFF;}
	.st3{fill:none;stroke:#797979;stroke-miterlimit:100;stroke-dasharray:1.64,0.82;}
	.st4{fill:#336F8D;}
	.st5{fill:#58B334;}
	.st6{fill:#E67418;}
	.st7{fill:#C11766;}
</style>
<g id="Shape_1_1_" class="st0">
	<g id="Shape_1">
		<g>
			<rect x="0.5" y="106.5" class="st1" width="647" height="3"/>
		</g>
		<g>
			<path class="st2" d="M647,107v2.1H1V107H647 M648,106H0v4h648V106L648,106z"/>
		</g>
	</g>
	<line class="st3" x1="477" y1="112" x2="477" y2="142"/>
	<line class="st3" x1="20" y1="73" x2="20" y2="103"/>
</g>
<g id="timelinecloud_xA0_Image_1_">
</g>
<g id="timelinecloud_copy_xA0_Image_1_">
</g>
<g id="timelinecloud_copy_2_xA0_Image_1_">
</g>
<g id="timelinecloud_copy_3_xA0_Image_1_">
</g>
<g id="Shape_2_1_" class="st0">
</g>
<g id="Shape_2_copy_1_" class="st0">
</g>
<g id="Shape_2_copy_2_1_" class="st0">
	<line class="st3" x1="567" y1="74" x2="567" y2="104"/>
	<line class="st3" x1="615" y1="114" x2="615" y2="144"/>
</g>
<g id="Shape_2_copy_3_1_" class="st0">
	<g>
		<g>
			<g id="XMLID_1_">
				<g>
					<path class="st4" d="M31.2,52.2c2.5,0,4.5,2.2,4.5,5c0,2.7-2,5-4.5,5H8.8c-2.5,0-4.5-2.2-4.5-5c0-2.3,1.5-4.3,3.5-4.8
						c-0.1-0.5-0.1-0.9-0.1-1.4c0-4.8,3.5-8.7,7.8-8.7c3.5,0,6.5,2.6,7.5,6.2c0.9-0.8,1.9-1.2,3.1-1.2
						C28.8,47.3,30.9,49.5,31.2,52.2L31.2,52.2z"/>
					<path class="st2" d="M26.2,47.3c-1.2,0-2.3,0.5-3.1,1.2c-1-3.6-4-6.2-7.5-6.2c-4.3,0-7.8,3.9-7.8,8.7c0,0.5,0,0.9,0.1,1.4
						c-2,0.5-3.5,2.5-3.5,4.8c0,2.7,2,5,4.5,5h22.4c2.5,0,4.5-2.2,4.5-5c0-2.7-2-5-4.5-5h0C30.9,49.5,28.8,47.3,26.2,47.3z
						 M15.5,39.9c3.6,0,6.8,2.1,8.6,5.3c0.7-0.2,1.4-0.3,2.1-0.3c3.1,0,5.8,2.2,6.8,5.2c2.8,0.9,4.9,3.7,4.9,7.2
						c0,4.1-3,7.4-6.7,7.4H8.8c-3.7,0-6.7-3.3-6.7-7.4c0-2.8,1.4-5.2,3.4-6.4C5.6,44.7,10,39.9,15.5,39.9z"/>
				</g>
				<g>
				</g>
			</g>
		</g>
		<g>
		</g>
		<g>
		</g>
		<g>
		</g>
		<g>
		</g>
		<g>
		</g>
		<g>
		</g>
		<g>
		</g>
		<g>
		</g>
		<g>
		</g>
		<g>
		</g>
		<g>
		</g>
		<g>
		</g>
		<g>
		</g>
		<g>
		</g>
		<g>
		</g>
	</g>
	<g>
		<g>
			<g id="XMLID_2_">
				<g>
					<path class="st5" d="M488.2,166.4c2.5,0,4.5,2.2,4.5,4.9c0,2.7-2,5-4.5,5h-22.4c-2.5,0-4.5-2.2-4.5-5c0-2.3,1.5-4.3,3.5-4.8
						c-0.1-0.4-0.1-0.9-0.1-1.4c0-4.8,3.5-8.7,7.8-8.7c3.5,0,6.5,2.6,7.5,6.2c0.9-0.8,1.9-1.2,3.1-1.2
						C485.8,161.5,487.9,163.7,488.2,166.4L488.2,166.4z"/>
					<path class="st2" d="M492.7,171.4c0-2.7-2-4.9-4.5-4.9h0c-0.3-2.8-2.4-5-5-5c-1.2,0-2.3,0.4-3.1,1.2c-1-3.6-4-6.2-7.5-6.2
						c-4.3,0-7.8,3.9-7.8,8.7c0,0.5,0,0.9,0.1,1.4c-2,0.5-3.5,2.5-3.5,4.8c0,2.7,2,5,4.5,5h22.4
						C490.7,176.4,492.7,174.1,492.7,171.4z M490,164.2c2.9,0.9,5,3.8,5,7.2c0,4.1-3,7.4-6.7,7.4h-22.4c-3.7,0-6.7-3.3-6.7-7.4
						c0-2.7,1.4-5.1,3.4-6.4c0.1-6,4.6-10.9,10.1-10.9c3.6,0,6.8,2.1,8.6,5.3c0.7-0.2,1.4-0.3,2.1-0.3
						C486.3,159,488.9,161.2,490,164.2z"/>
				</g>
				<g>
				</g>
			</g>
		</g>
		<g>
		</g>
		<g>
		</g>
		<g>
		</g>
		<g>
		</g>
		<g>
		</g>
		<g>
		</g>
		<g>
		</g>
		<g>
		</g>
		<g>
		</g>
		<g>
		</g>
		<g>
		</g>
		<g>
		</g>
		<g>
		</g>
		<g>
		</g>
		<g>
		</g>
	</g>
	<g>
		<g>
			<g id="XMLID_4_">
				<g>
					<path class="st6" d="M578.2,52.2c2.5,0,4.5,2.2,4.5,5c0,2.7-2,5-4.5,5h-22.4c-2.5,0-4.5-2.2-4.5-5c0-2.3,1.5-4.3,3.5-4.8
						c-0.1-0.5-0.1-0.9-0.1-1.4c0-4.8,3.5-8.7,7.8-8.7c3.5,0,6.5,2.6,7.5,6.2c0.9-0.8,1.9-1.2,3.1-1.2
						C575.8,47.3,577.9,49.5,578.2,52.2L578.2,52.2z"/>
					<path class="st2" d="M578.2,64.6h-22.4c-3.7,0-6.7-3.3-6.7-7.4c0-2.8,1.4-5.2,3.4-6.4c0.1-6,4.6-10.9,10.1-10.9
						c3.6,0,6.8,2.1,8.6,5.3c0.7-0.2,1.3-0.3,2.1-0.3c3.1,0,5.8,2.2,6.8,5.2c2.9,0.9,5,3.7,5,7.2C584.9,61.3,581.9,64.6,578.2,64.6z
						 M562.5,42.3c-4.3,0-7.8,3.9-7.8,8.7c0,0.5,0,0.9,0.1,1.4c-2,0.5-3.5,2.5-3.5,4.8c0,2.7,2,5,4.5,5h22.4c2.5,0,4.5-2.2,4.5-5
						c0-2.7-2-5-4.5-5h0c-0.3-2.8-2.4-5-5-5c-1.2,0-2.3,0.5-3.1,1.2C569,44.9,566.1,42.3,562.5,42.3z"/>
				</g>
				<g>
				</g>
			</g>
		</g>
		<g>
		</g>
		<g>
		</g>
		<g>
		</g>
		<g>
		</g>
		<g>
		</g>
		<g>
		</g>
		<g>
		</g>
		<g>
		</g>
		<g>
		</g>
		<g>
		</g>
		<g>
		</g>
		<g>
		</g>
		<g>
		</g>
		<g>
		</g>
		<g>
		</g>
	</g>
	<g>
		<g>
			<g id="XMLID_3_">
				<g>
					<path class="st7" d="M626.2,166.4c2.5,0,4.5,2.2,4.5,4.9c0,2.7-2,5-4.5,5h-22.4c-2.5,0-4.5-2.2-4.5-5c0-2.3,1.5-4.3,3.5-4.8
						c-0.1-0.4-0.1-0.9-0.1-1.4c0-4.8,3.5-8.7,7.8-8.7c3.5,0,6.5,2.6,7.5,6.2c0.9-0.8,1.9-1.2,3.1-1.2
						C623.8,161.5,625.9,163.7,626.2,166.4L626.2,166.4z"/>
					<path class="st2" d="M630.7,171.4c0-2.7-2-4.9-4.5-4.9h0c-0.3-2.8-2.4-5-5-5c-1.2,0-2.3,0.4-3.1,1.2c-1-3.6-4-6.2-7.5-6.2
						c-4.3,0-7.8,3.9-7.8,8.7c0,0.5,0,0.9,0.1,1.4c-2,0.5-3.5,2.5-3.5,4.8c0,2.7,2,5,4.5,5h22.4
						C628.7,176.4,630.7,174.1,630.7,171.4z M621.2,159c3.1,0,5.8,2.2,6.8,5.2c2.9,0.9,5,3.8,5,7.2c0,4.1-3,7.4-6.7,7.4h-22.4
						c-3.7,0-6.7-3.3-6.7-7.4c0-2.7,1.4-5.1,3.4-6.4c0.1-6,4.6-10.9,10.1-10.9c3.6,0,6.8,2.1,8.6,5.3
						C619.8,159.1,620.4,159,621.2,159z"/>
				</g>
				<g>
				</g>
			</g>
		</g>
		<g>
		</g>
		<g>
		</g>
		<g>
		</g>
		<g>
		</g>
		<g>
		</g>
		<g>
		</g>
		<g>
		</g>
		<g>
		</g>
		<g>
		</g>
		<g>
		</g>
		<g>
		</g>
		<g>
		</g>
		<g>
		</g>
		<g>
		</g>
		<g>
		</g>
	</g>
</g>
</svg>
